<?xml version="1.0" encoding="UTF-8" standalone="no"?>
<!DOCTYPE svg PUBLIC "-//W3C//DTD SVG 1.1//EN"
 "http://www.w3.org/Graphics/SVG/1.1/DTD/svg11.dtd">
<!-- Generated by graphviz version 2.40.1 (20161225.0304)
 -->
<!-- Title: dependencies Pages: 1 -->
<svg width="1012pt" height="284pt"
 viewBox="0.00 0.00 1012.00 284.00" xmlns="http://www.w3.org/2000/svg" xmlns:xlink="http://www.w3.org/1999/xlink">
<g id="graph0" class="graph" transform="scale(1 1) rotate(0) translate(4 280)">
<title>dependencies</title>
<polygon fill="#ffffff" stroke="transparent" points="-4,4 -4,-280 1008,-280 1008,4 -4,4"/>
<text text-anchor="start" x="481.0091" y="-42.4" font-family="sans-serif" font-weight="bold" font-size="14.00" fill="#000000">Legend</text>
<polygon fill="#ffffb3" stroke="transparent" points="268,-10 268,-30 288,-30 288,-10 268,-10"/>
<text text-anchor="start" x="291.629" y="-15.4" font-family="sans-serif" font-size="14.00" fill="#000000"> &#160;Declarations</text>
<polygon fill="#8dd3c7" stroke="transparent" points="381,-10 381,-30 401,-30 401,-10 381,-10"/>
<text text-anchor="start" x="404.7251" y="-15.4" font-family="sans-serif" font-size="14.00" fill="#000000"> &#160;Module</text>
<polygon fill="#80b1d3" stroke="transparent" points="467,-10 467,-30 487,-30 487,-10 467,-10"/>
<text text-anchor="start" x="490.7812" y="-15.4" font-family="sans-serif" font-size="14.00" fill="#000000"> &#160;Bootstrap</text>
<polygon fill="#fdb462" stroke="transparent" points="564,-10 564,-30 584,-30 584,-10 564,-10"/>
<text text-anchor="start" x="587.6732" y="-15.4" font-family="sans-serif" font-size="14.00" fill="#000000"> &#160;Providers</text>
<polygon fill="#fb8072" stroke="transparent" points="660,-10 660,-30 680,-30 680,-10 660,-10"/>
<text text-anchor="start" x="683.7258" y="-15.4" font-family="sans-serif" font-size="14.00" fill="#000000"> &#160;Exports</text>
<g id="clust1" class="cluster">
<title>cluster_AppModule</title>
<polygon fill="none" stroke="#000000" stroke-dasharray="1,5" points="8,-70 8,-268 336,-268 336,-70 8,-70"/>
</g>
<g id="clust2" class="cluster">
<title>cluster_AppModule_declarations</title>
<polygon fill="none" stroke="#000000" points="206,-78 206,-130 328,-130 328,-78 206,-78"/>
</g>
<g id="clust6" class="cluster">
<title>cluster_AppModule_bootstrap</title>
<polygon fill="none" stroke="#000000" points="124,-208 124,-260 248,-260 248,-208 124,-208"/>
</g>
<g id="clust7" class="cluster">
<title>cluster_AppModule_providers</title>
<polygon fill="none" stroke="#000000" points="16,-78 16,-130 198,-130 198,-78 16,-78"/>
</g>
<g id="clust8" class="cluster">
<title>cluster_HomeModule</title>
<polygon fill="none" stroke="#000000" stroke-dasharray="1,5" points="344,-70 344,-195 492,-195 492,-70 344,-70"/>
</g>
<g id="clust9" class="cluster">
<title>cluster_HomeModule_declarations</title>
<polygon fill="none" stroke="#000000" points="352,-78 352,-130 484,-130 484,-78 352,-78"/>
</g>
<g id="clust15" class="cluster">
<title>cluster_LayoutModule</title>
<polygon fill="none" stroke="#000000" stroke-dasharray="1,5" points="500,-70 500,-195 792,-195 792,-70 500,-70"/>
</g>
<g id="clust16" class="cluster">
<title>cluster_LayoutModule_declarations</title>
<polygon fill="none" stroke="#000000" points="508,-78 508,-130 784,-130 784,-78 508,-78"/>
</g>
<g id="clust23" class="cluster">
<title>cluster_NewsCategoryModule</title>
<polygon fill="none" stroke="#000000" stroke-dasharray="1,5" points="800,-70 800,-195 996,-195 996,-70 800,-70"/>
</g>
<g id="clust24" class="cluster">
<title>cluster_NewsCategoryModule_declarations</title>
<polygon fill="none" stroke="#000000" points="808,-78 808,-130 988,-130 988,-78 808,-78"/>
</g>
<!-- AppComponent -->
<g id="node1" class="node">
<title>AppComponent</title>
<polygon fill="#ffffb3" stroke="#000000" points="319.9399,-122 214.0601,-122 214.0601,-86 319.9399,-86 319.9399,-122"/>
<text text-anchor="middle" x="267" y="-99.8" font-family="Times,serif" font-size="14.00" fill="#000000">AppComponent</text>
</g>
<!-- AppModule -->
<g id="node2" class="node">
<title>AppModule</title>
<polygon fill="#8dd3c7" stroke="#000000" points="227.6571,-187 224.6571,-191 203.6571,-191 200.6571,-187 144.3429,-187 144.3429,-151 227.6571,-151 227.6571,-187"/>
<text text-anchor="middle" x="186" y="-164.8" font-family="Times,serif" font-size="14.00" fill="#000000">AppModule</text>
</g>
<!-- AppComponent&#45;&gt;AppModule -->
<g id="edge1" class="edge">
<title>AppComponent&#45;&gt;AppModule</title>
<path fill="none" stroke="#000000" d="M221.0544,-122.1061C221.0544,-122.1061 221.0544,-140.991 221.0544,-140.991"/>
<polygon fill="#000000" stroke="#000000" points="217.5544,-140.9909 221.0544,-150.991 224.5544,-140.991 217.5544,-140.9909"/>
</g>
<!-- AppComponent  -->
<g id="node3" class="node">
<title>AppComponent </title>
<polygon fill="#80b1d3" stroke="#000000" points="240.439,-252 131.561,-252 131.561,-216 240.439,-216 240.439,-252"/>
<text text-anchor="middle" x="186" y="-229.8" font-family="Times,serif" font-size="14.00" fill="#000000">AppComponent </text>
</g>
<!-- AppModule&#45;&gt;AppComponent  -->
<g id="edge2" class="edge">
<title>AppModule&#45;&gt;AppComponent </title>
<path fill="none" stroke="#000000" stroke-dasharray="1,5" d="M186,-187.1061C186,-187.1061 186,-205.991 186,-205.991"/>
<polygon fill="#000000" stroke="#000000" points="182.5001,-205.9909 186,-215.991 189.5001,-205.991 182.5001,-205.9909"/>
</g>
<!-- SessionInterceptor -->
<g id="node4" class="node">
<title>SessionInterceptor</title>
<ellipse fill="#fdb462" stroke="#000000" cx="107" cy="-104" rx="82.8013" ry="18"/>
<text text-anchor="middle" x="107" y="-99.8" font-family="Times,serif" font-size="14.00" fill="#000000">SessionInterceptor</text>
</g>
<!-- SessionInterceptor&#45;&gt;AppModule -->
<g id="edge3" class="edge">
<title>SessionInterceptor&#45;&gt;AppModule</title>
<path fill="none" stroke="#000000" d="M167.0362,-116.5327C167.0362,-116.5327 167.0362,-140.8507 167.0362,-140.8507"/>
<polygon fill="#000000" stroke="#000000" points="163.5363,-140.8506 167.0362,-150.8507 170.5363,-140.8507 163.5363,-140.8506"/>
</g>
<!-- HomeComponent -->
<g id="node5" class="node">
<title>HomeComponent</title>
<polygon fill="#ffffb3" stroke="#000000" points="475.5451,-122 360.4549,-122 360.4549,-86 475.5451,-86 475.5451,-122"/>
<text text-anchor="middle" x="418" y="-99.8" font-family="Times,serif" font-size="14.00" fill="#000000">HomeComponent</text>
</g>
<!-- HomeModule -->
<g id="node6" class="node">
<title>HomeModule</title>
<polygon fill="#8dd3c7" stroke="#000000" points="464.7619,-187 461.7619,-191 440.7619,-191 437.7619,-187 371.2381,-187 371.2381,-151 464.7619,-151 464.7619,-187"/>
<text text-anchor="middle" x="418" y="-164.8" font-family="Times,serif" font-size="14.00" fill="#000000">HomeModule</text>
</g>
<!-- HomeComponent&#45;&gt;HomeModule -->
<g id="edge4" class="edge">
<title>HomeComponent&#45;&gt;HomeModule</title>
<path fill="none" stroke="#000000" d="M418,-122.1061C418,-122.1061 418,-140.991 418,-140.991"/>
<polygon fill="#000000" stroke="#000000" points="414.5001,-140.9909 418,-150.991 421.5001,-140.991 414.5001,-140.9909"/>
</g>
<!-- HeaderComponent -->
<g id="node7" class="node">
<title>HeaderComponent</title>
<polygon fill="#ffffb3" stroke="#000000" points="775.7437,-122 654.2563,-122 654.2563,-86 775.7437,-86 775.7437,-122"/>
<text text-anchor="middle" x="715" y="-99.8" font-family="Times,serif" font-size="14.00" fill="#000000">HeaderComponent</text>
</g>
<!-- LayoutModule -->
<g id="node9" class="node">
<title>LayoutModule</title>
<polygon fill="#8dd3c7" stroke="#000000" points="694.7078,-187 691.7078,-191 670.7078,-191 667.7078,-187 595.2922,-187 595.2922,-151 694.7078,-151 694.7078,-187"/>
<text text-anchor="middle" x="645" y="-164.8" font-family="Times,serif" font-size="14.00" fill="#000000">LayoutModule</text>
</g>
<!-- HeaderComponent&#45;&gt;LayoutModule -->
<g id="edge5" class="edge">
<title>HeaderComponent&#45;&gt;LayoutModule</title>
<path fill="none" stroke="#000000" d="M674.3661,-122.1061C674.3661,-122.1061 674.3661,-140.991 674.3661,-140.991"/>
<polygon fill="#000000" stroke="#000000" points="670.8661,-140.9909 674.3661,-150.991 677.8661,-140.991 670.8661,-140.9909"/>
</g>
<!-- LayoutComponent -->
<g id="node8" class="node">
<title>LayoutComponent</title>
<polygon fill="#ffffb3" stroke="#000000" points="636.4902,-122 515.5098,-122 515.5098,-86 636.4902,-86 636.4902,-122"/>
<text text-anchor="middle" x="576" y="-99.8" font-family="Times,serif" font-size="14.00" fill="#000000">LayoutComponent</text>
</g>
<!-- LayoutComponent&#45;&gt;LayoutModule -->
<g id="edge6" class="edge">
<title>LayoutComponent&#45;&gt;LayoutModule</title>
<path fill="none" stroke="#000000" d="M615.9457,-122.1061C615.9457,-122.1061 615.9457,-140.991 615.9457,-140.991"/>
<polygon fill="#000000" stroke="#000000" points="612.4457,-140.9909 615.9457,-150.991 619.4457,-140.991 612.4457,-140.9909"/>
</g>
<!-- NewsCategoryComponent -->
<g id="node10" class="node">
<title>NewsCategoryComponent</title>
<polygon fill="#ffffb3" stroke="#000000" points="980.0225,-122 815.9775,-122 815.9775,-86 980.0225,-86 980.0225,-122"/>
<text text-anchor="middle" x="898" y="-99.8" font-family="Times,serif" font-size="14.00" fill="#000000">NewsCategoryComponent</text>
</g>
<!-- NewsCategoryModule -->
<g id="node11" class="node">
<title>NewsCategoryModule</title>
<polygon fill="#8dd3c7" stroke="#000000" points="969.2394,-187 966.2394,-191 945.2394,-191 942.2394,-187 826.7606,-187 826.7606,-151 969.2394,-151 969.2394,-187"/>
<text text-anchor="middle" x="898" y="-164.8" font-family="Times,serif" font-size="14.00" fill="#000000">NewsCategoryModule</text>
</g>
<!-- NewsCategoryComponent&#45;&gt;NewsCategoryModule -->
<g id="edge7" class="edge">
<title>NewsCategoryComponent&#45;&gt;NewsCategoryModule</title>
<path fill="none" stroke="#000000" d="M898,-122.1061C898,-122.1061 898,-140.991 898,-140.991"/>
<polygon fill="#000000" stroke="#000000" points="894.5001,-140.9909 898,-150.991 901.5001,-140.991 894.5001,-140.9909"/>
</g>
</g>
</svg>
